<?xml version="1.0" encoding="utf-8"?>
<!-- Generator: Adobe Illustrator 24.0.1, SVG Export Plug-In . SVG Version: 6.00 Build 0)  -->
<svg version="1.1" id="Layer_1" xmlns="http://www.w3.org/2000/svg" xmlns:xlink="http://www.w3.org/1999/xlink" x="0px" y="0px"
	 viewBox="0 0 512 512" style="enable-background:new 0 0 512 512;" xml:space="preserve">
<style type="text/css">
	.st0{fill:#020202;}
	.st1{fill:none;stroke:#000000;stroke-width:10;stroke-miterlimit:10;}
</style>
<g>
	<path d="M-582.7,87.2c17,0,33.4,2.3,49,6.5V47.4h-93v45C-612.6,89-597.9,87.2-582.7,87.2z"/>
	<circle class="st0" cx="-582.7" cy="272.9" r="171.5"/>
	<path class="st1" d="M-582.7,64.8c0,0-6.8-113.4,92.4-60c79.1,42.6,117,17,117,17"/>
	<polygon points="-378.4,-20.4 -370.2,2.5 -348.2,-8 -358.7,14 -335.8,22.2 -358.7,30.4 -348.2,52.4 -370.2,41.9 -378.4,64.8 
		-386.6,41.9 -408.6,52.4 -398.1,30.4 -421.1,22.2 -398.1,14 -408.6,-8 -386.6,2.5 	"/>
</g>
<g>
	<path d="M818.6,108c13.7-5.6,27.8-6.9,41.9-7.6c6.2-0.3,12.5,0,18.7,0.3c2.6,0.1,3.6-0.5,4-3.2c1.5-10.6,3.2-21.1,4.9-31.6
		c1.9-12.5,12.1-20,23.9-18.4c17.3,2.5,21.9,15.5,19.9,25.8c-2.1,11-3.7,22.1-5.6,33.2c-0.4,2.1-0.3,3.5,2.2,4.4
		c24.4,8.6,45.2,22.7,62.8,41.6c0.5,0.5,1,0.9,1.7,1.6c9.2-6.6,18.2-13.1,27.4-19.6c8.6-6.1,18.5-6.3,25.2,0.4
		c9.2,9.3,12.4,17.3,6.8,28.3c-1.6,3.2-4.7,5.8-7.6,8c-8.8,6.7-17.9,13-26.1,18.9c4.2,13.5,9.3,26.1,12,39.3
		c2.7,13.2,3,26.9,4.5,41.2c6.3,1.2,13.8,2.7,21.4,4.1c3.4,0.6,6.8,1.2,10.2,1.8c11.2,2.2,18.5,13,16.3,24.2
		c-0.6,2.8-1.2,5.8-2.3,8.4c-3.4,8-12.3,12.6-21.2,11.1c-11.3-1.9-22.6-4-34.4-6c-9.8,26.9-25.9,49.2-48.3,67.3
		c6.3,9.8,12.3,19.3,18.4,28.8c3.1,4.8,4.8,10,3.4,15.8c-2.5,10.5-10,16-19.8,17.9c-8.9,1.8-16.1-2.2-21.2-10
		c-6.2-9.5-12.5-19-18.9-28.7c-26.6,12.3-54.4,16.4-83.7,13.5c-2,9.8-4,19.4-5.9,29c-2.2,11-9.6,17.4-19.8,17
		c-14-0.5-22.9-7.2-23.9-18.9c-0.4-4.4,0.8-9.1,1.6-13.5c1.4-7.8,3-15.5,4.6-23.6c-26.8-10.2-49.2-26.5-67.5-49
		c-8,5.3-15.7,10.6-23.6,15.6c-2.8,1.8-5.8,3.5-8.9,4.3c-10.7,2.6-19.6-2.9-25-15.1c-4-8.9-1.5-17.9,7.2-24.1
		c7.9-5.6,16-11,24.1-16.4c1.9-1.2,2.7-2.2,1.6-4.6c-11.1-24.9-14.6-51-11.4-78c0-0.1-0.1-0.2-0.4-0.9c-8.1-1.9-16.6-3.8-25.1-5.8
		c-3.1-0.7-6.2-1.4-9.2-2.5c-11.2-4.1-15.9-14.2-13-25.7c1.7-6.8,5.2-11.7,11.3-15c4.9-2.6,9.7-2.7,14.9-1.5
		c10.8,2.5,21.6,4.9,32.7,7.4c11.9-29.9,32.2-52.6,58.5-70.7c-1.7-3.7-3.2-7.3-4.8-10.7c-4-8.7-8.1-17.3-12-26
		c-5.6-12.5-1.2-22.3,12.9-28.9c10.1-4.7,21.7-0.5,26.9,10.2C807.3,83.2,812.8,95.3,818.6,108z M799.2,159.7
		c-21.2-0.3-38.8,16.3-39.2,37.1c-0.4,20.2,16.4,37.2,37.2,37.5c20.9,0.3,38.5-16.9,38.7-37.7C836.1,176.4,819.8,160,799.2,159.7z"
		/>
</g>
<g>
	<path d="M64.8,460.4c128.4,0,255.4,0,383.7,0c-6.6-12.7-12.8-24.8-19.3-36.7c-2.2-4.1-6.2-4.6-10-2c-4.7,3.2-9.4,6.5-13.7,10.2
		c-4.1,3.6-8.2,5.6-13.8,3.7c-5.7-1.9-8-5.7-9.1-11.2c-3.2-15.8-13.7-25.9-28.6-32.1c-6.8-2.9-12.6-0.7-17.3,4.5
		c-1.2,1.4-2.4,2.8-3.4,4.3c-2.8,4.4-4.7,9.8-11.1,10.5c-8.3,0.9-16.5-0.5-22-6.6c-4.4-4.9-8.2-10.9-10.5-17
		c-5.7-14.7-6.5-30.4-7.1-45.9c-0.7-20.8-0.8-41.5-0.9-62.3c0-10.4,9.3-16.3,18.3-12c4.9,2.4,6.8,6.4,6.9,11.6
		c0.2,20,0.2,39.9,1.1,59.9c0.5,12.2,2.5,24.4,4,36.5c0.3,2.5,1.5,4.8,2.6,8c1.9-2.1,3.1-3.6,4.5-4.9c12.1-11.3,26.3-14.6,42.3-9.7
		c16.7,5.1,29.3,15.5,38.2,30.1c0.7,1.1,1.4,2.2,1.7,2.7c6.3-2.1,12-4.8,18-5.8c12.6-2,23,2.8,29.9,12.9c5.4,7.9,9.5,16.5,14,24.9
		c4.2,7.8,8,15.8,12.4,23.6c0.8,1.4,3.3,2.7,5.1,2.8c5.1,0.4,10.2,0,15.3,0.2c7.4,0.2,12.7,4.8,13.1,11.2c0.4,6.6-4.5,11.9-12,12.8
		c-2,0.2-4.1,0.2-6.1,0.2c-156.3,0-312.6,0-468.9,0c-2.5,0-5.1-0.1-7.6-0.5c-6.5-1-10.8-6.3-10.5-12.5c0.3-5.8,5.1-10.8,11.5-11.1
		c5.6-0.3,11.2,0.1,16.8-0.3c1.8-0.1,4.3-1.4,5.1-2.8c5.3-9.9,10-20,15.2-29.9c3.5-6.7,7.1-13.5,11.7-19.4
		c10.7-13.6,27.3-16.4,42.7-7.9c1.3,0.7,2.6,1.5,2.7,1.6c7.8-8,14.5-16.6,22.9-23.1c12.4-9.6,26.9-14.6,43.4-10.3
		c9.1,2.4,15.9,7.7,21.7,14.6c0.6,0,1.1,0,1.7-0.1c1.4-8.6,3.7-17.1,4.1-25.7c1.2-25.8,1.7-51.6,2.4-77.5
		c0.3-10.2,8.7-16.2,17.8-12.5c4.7,1.9,7.5,5.5,7.5,10.2c-0.1,33.2,1.4,66.5-5.1,99.3c-1.5,7.6-4.6,15.1-8.3,21.9
		c-4.6,8.3-12.6,12.3-22.6,12.9c-6.3,0.4-10.1-2.1-13.4-7c-2.7-4.1-5.7-8.3-9.6-11.1c-2.7-1.9-7.5-2.7-10.9-1.9
		c-15.5,3.6-29.2,19-31.1,34.1c-0.6,4.8-3.5,7.6-7.9,9.3c-4.7,1.8-8.9,1.4-12.9-1.9c-4.5-3.7-8.9-7.6-13.8-10.8
		c-6.1-4-9.5-3.5-12.9,2.8C76.5,436.5,71,448.1,64.8,460.4z"/>
	<path d="M352.1,98.6c13.1-2.9,26-2.7,38.7,0.3c40,9.3,67.4,42.7,67.8,82.3c0.5,48.1-42.7,88-92.6,84.9c-8.7-0.5-17.4-2.7-25.9-5
		c-8.7-2.3-12.4-9.1-10-15.9c2.6-7.3,9.6-9.9,18.4-6.9c26.7,9,55,1.2,71.9-19.9c16.6-20.7,17.4-49.3,2-71
		c-15.3-21.7-43.3-31.3-69.7-23.8c-1.5,0.4-2.9,0.9-4.4,1.4c-8.8,2.6-15.6-0.8-17.8-9.5c-2.8-10.9-6.9-21.3-13.7-30.4
		c-22.3-29.8-53.1-41.9-90-35.1c-36.3,6.7-59.1,29.2-68.7,63.6c-1.5,5.3-2,10.9-2.2,16.5c-0.6,12.8-5.6,17.1-18.6,15.6
		c-26.6-3.2-50.5,12.8-56.1,37.9c-4,18.3,1.5,34.3,16,46.5c14.5,12.3,31.6,14.9,50.2,9.4c3.7-1.1,8.1-1.6,11.8-0.8c5,1.1,8,6,8,10.8
		c0,5.4-3.1,9.6-9.1,11.8c-15.9,5.9-32.1,6.7-48.5,2.2c-34-9.3-56.7-40.1-54.7-74c2.1-35.9,33.6-66.3,71-68.5
		c1.7-0.1,3.4-0.3,4.8-0.4c11.5-55.3,44.6-89.8,103.6-96.3C284.6,18.8,334,48.4,352.1,98.6z"/>
	<path d="M245.7,242.1c-23.6-0.4-43.3-5.6-61.4-16.4c-6.4-3.8-8.8-9.4-6.7-15.3c2.5-7.3,11-9.9,19-6.1c5.6,2.7,11,5.9,16.9,7.9
		c27.1,8.9,53.2,6.7,77.8-7.8c2.2-1.3,4.3-2.8,6.7-3.5c6.2-2,12.1,0.5,15,6c2.9,5.5,1.3,11.9-4.2,15.6
		c-14.7,9.8-30.9,16.3-48.8,18.5C254.5,241.5,248.9,241.8,245.7,242.1z"/>
</g>
</svg>
