<?xml version="1.0" encoding="utf-8"?>
<!-- Generator: Adobe Illustrator 24.0.1, SVG Export Plug-In . SVG Version: 6.00 Build 0)  -->
<svg version="1.1" id="Layer_1" xmlns="http://www.w3.org/2000/svg" xmlns:xlink="http://www.w3.org/1999/xlink" x="0px" y="0px"
	 viewBox="0 0 64 64" style="enable-background:new 0 0 64 64;" xml:space="preserve">
<path d="M112.6,45.8c1-1.4,4.3-40,4.3-40.4s-2.7-4.2-10-4.2c-7.3,0-11,3.4-11,3.4c-0.2,1.4,4.7,40.2,6,41.6
	C103.2,47.6,111.6,47.2,112.6,45.8L112.6,45.8z M98.9,5.9c0.1-0.4,4.4-2.6,8.2-2.3c3.9,0.2,7.5,2.6,7.5,3c0,0.4-0.4,3-0.5,2.9
	c-0.1-0.1-6.4-4.6-6.6-4.6c-0.3,0-0.8,1-0.4,1.3c0.4,0.2,6.8,4.8,6.8,4.9s-0.4,2.3-0.4,2.3s-6.8-5.2-7.1-5.2s-0.6,1.1-0.4,1.3
	s7.3,5.1,7.3,5.3s-0.2,3.2-0.3,3.2c-0.1,0-6.6-5.7-6.8-5.6c-0.2,0-0.6,1.3-0.4,1.4c0.2,0.1,7.1,5.8,7.3,6.1s-0.3,3.1-0.3,3.1
	s-7-5.7-7.1-5.7s-0.5,1.3-0.3,1.4s7.3,6,7.3,6.2s0.1,2.8-0.2,2.8c-0.3-0.1-6.3-5.1-6.6-5.1c-0.3,0-0.7,1-0.4,1.3
	c0.3,0.3,6.6,5.5,6.6,5.7c0,0.2-0.2,3.6-0.2,3.6S106.1,27,106,27s-0.4,1.5-0.1,1.7c0.2,0.2,5.9,6,5.9,6.2s-0.2,2.3-0.2,2.3
	s-5-4.9-5.2-4.9s-0.7,1.5-0.5,1.6c0.1,0.1,5.5,5,5.5,5l-0.2,2.2l-5.1-4.3c0,0-0.4,1.2-0.3,1.4c0.1,0.2,5.1,4.2,5.1,4.4
	c0,0.2-0.2,1.4-0.3,1.5c-0.1,0-0.8,0.2-1.1,0.1c-0.3-0.1-3.2-2.7-3.4-2.6c-0.1,0-0.5,1-0.4,1.2c0.1,0.2,1.7,1.7,1.7,1.7
	s-3,0.2-3.2-0.1C104,44.1,98.6,8.1,98.9,5.9L98.9,5.9z M106.6,51c-3.6,0.3-8,2.5-8,7.5c0,5,3.9,6.5,6.5,6.7c2.6,0.2,9-0.5,9.3-5.6
	C114.8,52.8,111.6,50.7,106.6,51L106.6,51z M105.6,62.9c-2.3,0-4-2.4-4-4.3c0-1.9,1.3-4.7,5.2-4.9c1.7-0.1,5.1-0.2,5.1,5.2
	C111.8,62.5,107.9,62.9,105.6,62.9L105.6,62.9z M104.8,55c-1.7,0.6-1.9,3.3-1.7,4.3c0.2,1,1.4,0.8,1.6,0.6c0.2-0.2,0-0.3-0.2-1.5
	c-0.2-1.2,1-2.6,1.2-2.8C106,55.5,105.3,54.9,104.8,55L104.8,55z"/>
<g>
	<path d="M-84.5,63.7c-1.1,0-2,0-3.1,0c0-0.3,0-0.5,0-0.7c0-19.1,0-38.3,0-57.4c0-0.5,0.1-0.8,0.6-1.1c5.7-3.4,11.8-4.7,18.4-3.9
		c2.9,0.3,5.7,1.1,8.3,2.3c3.9,1.6,7.8,2.8,12,3c2.3,0.1,4.5,0,6.7-0.8c0.1,0,0.2-0.1,0.5-0.1c0,0.3,0,0.5,0,0.7
		c0,8.8,0,17.6,0,26.5c0,0.6-0.2,0.9-0.7,1c-2.2,0.7-4.5,0.9-6.8,0.7c-4.3-0.3-8.3-1.7-12.2-3.3c-7.1-3-14.3-3-21.5-0.3
		c-0.7,0.3-1.7,0.5-2,1c-0.4,0.5-0.1,1.4-0.1,2.2c0,9.8,0,19.7,0,29.5C-84.5,63.1-84.5,63.4-84.5,63.7z"/>
</g>
<g>
	<path d="M13.1,4.8c0.9,0,1.7,0,2.4,0c0.2,0,0.4,0.1,0.6,0.3c2.7,2.6,6,3.2,9.5,2.1c2.2-0.7,4.2-1.7,6.2-2.8
		c3.1-1.7,6.2-3.1,9.7-3.8c3.8-0.7,7.5-0.4,10.9,1.6c0.8,0.5,1.2,1,1.2,2.1c-0.1,8,0,15.9,0,23.9c0,0.3,0,0.6,0,1
		c-0.2-0.1-0.4-0.2-0.5-0.3c-3.8-3.8-8.3-3.8-13.1-2.5c-2.6,0.7-5,1.9-7.3,3.3c-2.5,1.4-5,2.7-7.8,3.2c-1.8,0.3-3.5,0.4-5.3-0.1
		c0-0.9,0-1.8,0-2.8c0.7,0.1,1.4,0.3,2.1,0.3c3.1,0.2,5.8-1,8.5-2.3c2.6-1.3,5.1-2.7,7.8-3.7c4.2-1.5,8.5-2,12.9-0.1
		c0-0.4,0-0.6,0-0.9c0-5.8,0-11.6,0-17.4c0-1-0.4-1.4-1.2-1.7c-2.3-0.9-4.7-1.1-7.2-0.7c-3.2,0.5-6,1.8-8.8,3.2
		c-2.3,1.2-4.5,2.4-6.9,3.2c-3.7,1.3-7.5,1.1-11-1.2c0,18.5,0,36.8,0,55.2c-1,0-1.9,0-2.8,0C13.1,44.1,13.1,24.5,13.1,4.8z"/>
</g>
</svg>
